HIERARCHY
ROOT reference
{
  OFFSET 0 0 0
  CHANNELS 6 Xposition Yposition Zposition Zrotation Xrotation Yrotation
  JOINT Hips
  {
    OFFSET 47.7805 80.9229 122.449
    CHANNELS 6 Xposition Yposition Zposition Zrotation Xrotation Yrotation
    JOINT Spine
    {
      OFFSET 0 7.3847 0
      CHANNELS 6 Xposition Yposition Zposition Zrotation Xrotation Yrotation
      JOINT Spine1
      {
        OFFSET 0 22.52 0
        CHANNELS 6 Xposition Yposition Zposition Zrotation Xrotation Yrotation
        JOINT Neck
        {
          OFFSET 0 22.4276 2.03887
          CHANNELS 6 Xposition Yposition Zposition Zrotation Xrotation Yrotation
          JOINT Head
          {
            OFFSET 0 12.608 -1.80115
            CHANNELS 6 Xposition Yposition Zposition Zrotation Xrotation Yrotation
            End Site
            {
              OFFSET 0 22.5143 0
            }
          }
        }
        JOINT LeftShoulder
        {
          OFFSET 3.70204 19.5563 -0.329131
          CHANNELS 6 Xposition Yposition Zposition Zrotation Xrotation Yrotation
          JOINT LeftArm
          {
            OFFSET 13.7086 0 0
            CHANNELS 6 Xposition Yposition Zposition Zrotation Xrotation Yrotation
            JOINT LeftForeArm
            {
              OFFSET 25.9307 0 0
              CHANNELS 6 Xposition Yposition Zposition Zrotation Xrotation Yrotation
              JOINT LeftHand
              {
                OFFSET 23.5097 0 0
                CHANNELS 6 Xposition Yposition Zposition Zrotation Xrotation Yrotation
                End Site
                {
                  OFFSET 13.5086 0 0
                }
              }
            }
          }
        }
        JOINT RightShoulder
        {
          OFFSET -3.48695 19.5563 -0.329131
          CHANNELS 6 Xposition Yposition Zposition Zrotation Xrotation Yrotation
          JOINT RightArm
          {
            OFFSET -13.7086 0 0
            CHANNELS 6 Xposition Yposition Zposition Zrotation Xrotation Yrotation
            JOINT RightForeArm
            {
              OFFSET -25.9307 0 0
              CHANNELS 6 Xposition Yposition Zposition Zrotation Xrotation Yrotation
              JOINT RightHand
              {
                OFFSET -23.5097 0 0
                CHANNELS 6 Xposition Yposition Zposition Zrotation Xrotation Yrotation
                End Site
                {
                  OFFSET -13.5086 0 0
                }
              }
            }
          }
        }
      }
    }
    JOINT LeftUpLeg
    {
      OFFSET 9.00574 0 0
      CHANNELS 6 Xposition Yposition Zposition Zrotation Xrotation Yrotation
      JOINT LeftLeg
      {
        OFFSET 0 -37.3387 0
        CHANNELS 6 Xposition Yposition Zposition Zrotation Xrotation Yrotation
        JOINT LeftFoot
        {
          OFFSET 0 -36.155 0
          CHANNELS 6 Xposition Yposition Zposition Zrotation Xrotation Yrotation
          JOINT LeftToeBase
          {
            OFFSET 0 -5.85373 13.5086
            CHANNELS 6 Xposition Yposition Zposition Zrotation Xrotation Yrotation
            End Site
            {
              OFFSET 0 0 3.60229
            }
          }
        }
      }
    }
    JOINT RightUpLeg
    {
      OFFSET -9.00574 0 0
      CHANNELS 6 Xposition Yposition Zposition Zrotation Xrotation Yrotation
      JOINT RightLeg
      {
        OFFSET 0 -37.3387 0
        CHANNELS 6 Xposition Yposition Zposition Zrotation Xrotation Yrotation
        JOINT RightFoot
        {
          OFFSET 0 -36.155 0
          CHANNELS 6 Xposition Yposition Zposition Zrotation Xrotation Yrotation
          JOINT RightToeBase
          {
            OFFSET 0 -5.85373 13.5086
            CHANNELS 6 Xposition Yposition Zposition Zrotation Xrotation Yrotation
            End Site
            {
              OFFSET 0 0 3.60229
            }
          }
        }
      }
    }
  }
}
MOTION
Frames:	4
Frame Time:	0.004
0 0 0 0 0 -0 -25.9301 70.4553 -74.5931 -5.14817 -4.07711 3.33106 3.55271e-015 7.3847 -1.42109e-014 2.13459 1.00364 -1.20559 3.55271e-015 22.52 -1.42109e-014 -5.497 -2.71014 -1.31699 0 22.4276 2.03887 15.197 22.5845 0.219257 4.44089e-016 12.608 -1.80115 -10.0773 9.32133 0.532251 3.70204 19.5563 -0.329131 2.42214 8.25401 -11.3115 13.7086 1.42109e-014 -1.42109e-014 -66.7047 23.8186 -17.1496 25.9307 7.10543e-015 0 9.41905 2.41105 -19.2815 23.5097 7.10543e-015 -1.06581e-014 -10.5885 5.00951 -10.7733 -3.48695 19.5563 -0.329131 -13.5613 -11.128 -2.86266 -13.7086 0 -7.10543e-015 -0.815248 -8.40067 16.1292 -25.9307 2.84217e-014 7.10543e-015 -10.433 1.44999 59.241 -23.5097 -1.42109e-014 0 -52.9293 -0.67315 16.0918 9.00574 1.42109e-014 -1.42109e-014 5.49981 -29.5389 1.91373 0 -37.3387 3.55271e-015 161.676 79.5728 -150.725 1.77636e-015 -36.155 7.10543e-015 -2.25973 -12.4985 -9.59954 0 -5.85373 13.5086 3.97569e-016 6.36111e-015 3.97569e-016 -9.00574 0 0 -20.4245 -15.0603 -9.6102 -1.42109e-014 -37.3387 -1.42109e-014 10.7381 39.1357 -6.43614 0 -36.155 0 14.8802 -17.6234 -11.287 0 -5.85373 13.5086 -4.41391e-032 -7.95139e-016 -3.18055e-015 
0 0 0 0 0 -0 -26.0998 70.2971 -73.9076 -5.36955 -4.82778 2.85209 0 7.3847 0 2.28915 1.4266 -0.751899 -3.55271e-015 22.52 0 -5.35614 -1.92562 -0.81342 -7.10543e-015 22.4276 2.03887 15.0795 21.5543 0.211724 -8.88178e-016 12.608 -1.80115 -9.96562 10.2664 0.454651 3.70204 19.5563 -0.329131 2.48246 8.41594 -10.8502 13.7086 1.42109e-014 0 -67.3282 23.2249 -16.4837 25.9307 7.10543e-015 0 8.99324 2.16373 -19.0782 23.5097 1.06581e-014 3.55271e-015 -9.51413 4.63757 -11.5543 -3.48695 19.5563 -0.329131 -14.302 -12.4393 -3.00761 -13.7086 -1.42109e-014 7.10543e-015 -0.412754 -8.28747 16.3042 -25.9307 -1.42109e-014 -1.42109e-014 -10.0055 2.02193 56.8177 -23.5097 -1.42109e-014 2.84217e-014 -53.0823 -1.02475 16.8195 9.00574 0 1.42109e-014 5.69133 -29.5683 2.39622 -3.55271e-015 -37.3387 -7.10543e-015 163.394 78.4329 -153.57 8.88178e-016 -36.155 7.10543e-015 -2.68375 -13.0198 -9.2686 3.55271e-015 -5.85373 13.5086 -1.32417e-031 -9.54166e-015 -7.95139e-016 -9.00574 0 0 -20.313 -14.2959 -9.42635 0 -37.3387 0 11.2495 39.8478 -6.30724 0 -36.155 7.10543e-015 14.7999 -18.3386 -10.8089 -1.42109e-014 -5.85373 13.5086 -2.20695e-032 3.97569e-016 3.18055e-015 
0 0 0 0 0 -0 -26.2405 70.238 -73.2565 -5.51436 -5.43248 2.31956 -3.55271e-015 7.3847 0 2.39333 1.71411 -0.29149 -3.55271e-015 22.52 -1.42109e-014 -5.31227 -1.15798 -0.309371 -7.10543e-015 22.4276 2.03887 15.0635 20.6305 0.162589 5.32907e-015 12.608 -1.80115 -9.86369 11.0378 0.339744 3.70204 19.5563 -0.329131 2.63034 8.87777 -10.2873 13.7086 -1.42109e-014 -1.42109e-014 -67.7999 22.2226 -16.1705 25.9307 -7.10543e-015 -7.10543e-015 8.0518 1.84148 -19.0615 23.5097 0 0 -7.6786 4.00488 -12.0705 -3.48695 19.5563 -0.329131 -14.6711 -13.1832 -3.24978 -13.7086 -1.42109e-014 0 -0.230095 -8.96512 16.7242 -25.9307 0 0 -9.43578 2.78471 54.419 -23.5097 0 0 -53.2655 -1.23116 17.539 9.00574 1.42109e-014 -1.42109e-014 5.7815 -29.6865 3.01801 1.77636e-015 -37.3387 -3.55271e-015 165.062 77.798 -155.604 2.66454e-015 -36.155 -1.42109e-014 -2.8076 -13.1098 -9.19609 1.77636e-015 -5.85373 13.5086 -7.95139e-016 -9.54166e-015 3.97569e-016 -9.00574 0 0 -20.2002 -13.614 -9.47675 0 -37.3387 0 11.2855 40.3765 -5.88374 0 -36.155 7.10543e-015 14.8652 -18.8205 -10.2312 0 -5.85373 13.5086 -1.98785e-016 3.97569e-016 -3.18055e-015 
0 0 0 0 0 -0 -26.3925 70.1835 -72.6999 -5.75883 -5.63377 1.81769 0 7.3847 0 2.71406 1.91945 0.123505 -3.55271e-015 22.52 1.42109e-014 -5.5171 -0.910182 0.1251 0 22.4276 2.03887 14.9021 20.0575 0.117825 2.66454e-015 12.608 -1.80115 -9.33241 11.4924 0.2658 3.70204 19.5563 -0.329131 2.83231 9.40239 -9.85638 13.7086 0 -1.42109e-014 -68.1239 21.2654 -15.5281 25.9307 -3.55271e-015 -7.10543e-015 7.22166 1.71815 -19.2429 23.5097 -7.10543e-015 -1.06581e-014 -6.52643 3.63429 -12.1143 -3.48695 19.5563 -0.329131 -14.8449 -13.465 -3.32981 -13.7086 0 0 0.00903026 -10.3393 17.0376 -25.9307 0 7.10543e-015 -8.51345 3.84026 52.3343 -23.5097 0 0 -53.484 -1.11858 17.9812 9.00574 1.42109e-014 0 6.00296 -30.374 3.50919 0 -37.3387 0 167.538 77.1678 -158.48 2.66454e-015 -36.155 0 -2.78678 -13.07 -9.04562 0 -5.85373 13.5086 0 0 -3.97569e-016 -9.00574 1.42109e-014 -1.42109e-014 -19.966 -13.3304 -9.57859 1.42109e-014 -37.3387 -1.42109e-014 11.2533 40.7061 -5.81349 0 -36.155 -7.10543e-015 15.0891 -18.9678 -9.53418 0 -5.85373 13.5086 -1.98785e-016 0 -3.18055e-015 
